<svg width="282" height="310" viewBox="0 0 282 310" fill="none" xmlns="http://www.w3.org/2000/svg">
<circle cx="221" cy="87" r="61" fill="white"/>
<circle cx="221" cy="223" r="61" fill="white"/>
<path d="M130.134 43.8665C153.956 67.6885 153.956 106.312 130.134 130.134L87.0001 173.267L43.8666 130.134C20.0446 106.312 20.0446 67.6885 43.8666 43.8665V43.8665C67.6885 20.0445 106.312 20.0445 130.134 43.8665V43.8665Z" fill="#FF7A00"/>
<path d="M43.8664 266.134C20.0444 242.312 20.0444 203.688 43.8664 179.866L86.9999 136.733L130.133 179.866C153.955 203.688 153.955 242.312 130.133 266.134V266.134C106.311 289.955 67.6884 289.955 43.8664 266.134V266.134Z" fill="url(#paint0_linear_52_244)"/>
<defs>
<linearGradient id="paint0_linear_52_244" x1="87" y1="137" x2="87" y2="284" gradientUnits="userSpaceOnUse">
<stop offset="0.442177" stop-color="#FF7A00"/>
<stop offset="1" stop-color="white"/>
</linearGradient>
</defs>
</svg>
