<svg width="282" height="309" viewBox="0 0 282 309" fill="none" xmlns="http://www.w3.org/2000/svg">
<circle cx="220.267" cy="86.2666" r="61" fill="white"/>
<circle cx="220.267" cy="222.267" r="61" fill="white"/>
<path d="M129.401 43.1331C153.223 66.9551 153.223 105.578 129.401 129.4L86.2672 172.534L43.1336 129.4C19.3117 105.578 19.3117 66.9551 43.1336 43.1331V43.1331C66.9556 19.3111 105.579 19.3111 129.401 43.1331V43.1331Z" fill="white"/>
<path d="M43.1335 265.4C19.3115 241.578 19.3115 202.955 43.1335 179.133L86.267 136L129.401 179.133C153.223 202.955 153.223 241.578 129.401 265.4V265.4C105.579 289.222 66.9555 289.222 43.1335 265.4V265.4Z" fill="white"/>
</svg>
