<svg width="173" height="46" viewBox="0 0 173 46" fill="none" xmlns="http://www.w3.org/2000/svg">
<path d="M7.375 34.2812C5.1875 34.2812 3.52344 33.75 2.38281 32.6875C1.24219 31.6094 0.671875 30.0938 0.671875 28.1406C0.671875 27.0938 0.78125 26.1797 1 25.3984L6.13281 1.35156L13.2344 0.390625L10.9375 11.1953C11.8594 10.6328 12.6406 10.2578 13.2812 10.0703C13.75 9.92969 14.2812 9.85938 14.875 9.85938C16.6719 9.85938 18.0391 10.4609 18.9766 11.6641C20.0234 13.0234 20.5469 15.1562 20.5469 18.0625C20.5469 19.0625 20.4531 20.1484 20.2656 21.3203C20.0781 22.4766 19.7891 23.625 19.3984 24.7656C18.4609 27.5 17.1016 29.6875 15.3203 31.3281C13.1641 33.2969 10.5156 34.2812 7.375 34.2812ZM10.0703 29.6406C11.0391 29.6406 11.9922 28.9922 12.9297 27.6953C13.7422 26.5391 14.4141 25.0234 14.9453 23.1484C15.4453 21.3047 15.6953 19.5469 15.6953 17.875C15.6953 16.5781 15.4922 15.5156 15.0859 14.6875C14.8672 14.2344 14.5938 13.8828 14.2656 13.6328C13.9375 13.3828 13.5625 13.2578 13.1406 13.2578C12.5938 13.2578 12.1016 13.3125 11.6641 13.4219C11.0078 13.5938 10.5547 13.8281 10.3047 14.125L7.67969 26.3125C7.58594 26.7031 7.53906 27.0703 7.53906 27.4141C7.53906 28.8984 8.38281 29.6406 10.0703 29.6406ZM25.5859 10H32.5L31.8906 12.9766C32.9844 12.0078 33.875 11.3203 34.5625 10.9141C35.625 10.3047 36.6641 10 37.6797 10C38.7109 10 39.5391 10.3672 40.1641 11.1016C40.4453 11.4297 40.6562 11.8125 40.7969 12.25C40.9375 12.6719 41.0078 13.125 41.0078 13.6094C41.0078 14.0469 40.9375 14.4688 40.7969 14.875C40.6562 15.2812 40.4453 15.6484 40.1641 15.9766C39.8516 16.3203 39.4688 16.5938 39.0156 16.7969C38.5781 17 38.0859 17.1016 37.5391 17.1016C37.1172 17.1016 36.7812 17.0312 36.5312 16.8906C36.2812 16.75 36.0859 16.5469 35.9453 16.2812C35.8203 16.0156 35.7344 15.7578 35.6875 15.5078C35.5469 14.8359 35.4062 14.3906 35.2656 14.1719C35.1562 14.0156 34.9844 13.9375 34.75 13.9375C34.0781 13.9375 33.5078 14.0781 33.0391 14.3594C32.5703 14.6406 31.9766 15.1094 31.2578 15.7656L27.4141 34H20.5L25.5859 10ZM46.1406 34.2812C44.3125 34.2812 42.8359 33.7109 41.7109 32.5703C40.3984 31.2266 39.7422 29.2266 39.7422 26.5703C39.7422 25.4453 39.8594 24.2578 40.0938 23.0078C40.3125 21.7578 40.6406 20.5234 41.0781 19.3047C42.0781 16.5547 43.4453 14.3359 45.1797 12.6484C47.1797 10.7266 49.4844 9.76562 52.0938 9.76562C53.3906 9.76562 54.3594 9.99219 55 10.4453C55.6562 10.8828 55.9844 11.4688 55.9844 12.2031V12.5547L56.5 10H63.4141L59.9688 26.3125C59.8281 26.7812 59.7578 27.2969 59.7578 27.8594C59.7578 29.2344 60.4141 29.9219 61.7266 29.9219C62.6016 29.9219 63.3984 29.4766 64.1172 28.5859C64.7266 27.8359 65.2266 26.7734 65.6172 25.3984H67.6328C66.7734 27.8359 65.7344 29.7656 64.5156 31.1875C63.4844 32.3594 62.3203 33.2031 61.0234 33.7188C60.0703 34.0938 59.0625 34.2812 58 34.2812C56.6406 34.2812 55.5547 33.9141 54.7422 33.1797C53.9453 32.4297 53.4609 31.3281 53.2891 29.875C52.3828 31.1562 51.4297 32.1562 50.4297 32.875C49.1484 33.8125 47.7188 34.2812 46.1406 34.2812ZM49.2578 29.6406C49.6172 29.6406 49.9922 29.5469 50.3828 29.3594C50.7891 29.1719 51.1797 28.9062 51.5547 28.5625C52.3984 27.75 52.9609 26.6953 53.2422 25.3984L55.5391 14.5703C55.5391 14.4141 55.5 14.2344 55.4219 14.0312C55.3594 13.8125 55.2656 13.6094 55.1406 13.4219C54.7656 12.9688 54.2422 12.7422 53.5703 12.7422C52.9297 12.7422 52.3047 12.9531 51.6953 13.375C51.1016 13.7969 50.5391 14.3828 50.0078 15.1328C49.0703 16.4922 48.2969 18.2656 47.6875 20.4531C47.4062 21.4219 47.1953 22.3828 47.0547 23.3359C46.9141 24.2734 46.8438 25.125 46.8438 25.8906C46.8438 27.4844 47.1406 28.5625 47.7344 29.125C47.9375 29.3438 48.1641 29.4844 48.4141 29.5469C48.6641 29.6094 48.9453 29.6406 49.2578 29.6406ZM82.9609 34.2812C80.9766 34.2812 79.5078 33.7188 78.5547 32.5938C77.7266 31.625 77.3125 30.3828 77.3125 28.8672C77.3125 28.1484 77.3984 27.3125 77.5703 26.3594C77.7578 25.4062 78.0312 24.1797 78.3906 22.6797C78.75 21.1484 79.0156 19.9297 79.1875 19.0234C79.375 18.1016 79.4688 17.3047 79.4688 16.6328C79.4688 14.9922 78.8906 14.1719 77.7344 14.1719C76.9219 14.1719 76.1719 14.6016 75.4844 15.4609C74.9062 16.1953 74.4062 17.2422 73.9844 18.6016L70.7266 34H63.8125L68.8984 10H75.8125L75.2969 12.4844C76.2344 11.4375 77.2422 10.7031 78.3203 10.2812C79.1172 9.96875 79.9766 9.8125 80.8984 9.8125C82.5234 9.8125 83.8047 10.2344 84.7422 11.0781C85.7422 12 86.2422 13.3828 86.2422 15.2266C86.2422 16.3359 86.0391 17.7812 85.6328 19.5625C85.5234 20.0781 85.3438 20.8516 85.0938 21.8828C84.6406 23.6172 84.3125 25 84.1094 26.0312C83.9844 26.6875 83.9219 27.2188 83.9219 27.625C83.9219 28.2656 84.0625 28.7656 84.3438 29.125C84.6406 29.4688 85.1406 29.6406 85.8438 29.6406C86.7969 29.6406 87.6016 29.25 88.2578 28.4688C88.7578 27.875 89.2969 26.8516 89.875 25.3984H91.8906C90.7031 28.9141 89.2031 31.375 87.3906 32.7812C86.1094 33.7812 84.6328 34.2812 82.9609 34.2812ZM94.6328 34.2812C93.1016 34.2812 91.8906 33.8281 91 32.9219C90 31.9219 89.5 30.4609 89.5 28.5391C89.5 27.6328 89.625 26.5859 89.875 25.3984L93.1328 10H100.047L96.6016 26.3125C96.5078 26.7031 96.4609 27.1094 96.4609 27.5312C96.4609 28.1406 96.5625 28.625 96.7656 28.9844C97 29.4219 97.375 29.6406 97.8906 29.6406C98.7656 29.6406 99.5547 29.2422 100.258 28.4453C100.82 27.7734 101.312 26.7578 101.734 25.3984L104.992 10H111.906L108.461 26.3125C108.289 27.125 108.203 27.7031 108.203 28.0469C108.203 28.5469 108.336 28.9375 108.602 29.2188C108.867 29.5 109.281 29.6406 109.844 29.6406C110.594 29.6406 111.328 29.375 112.047 28.8438C112.766 28.3125 113.445 27.5781 114.086 26.6406C114.68 25.7812 115.227 24.7812 115.727 23.6406C116.242 22.5 116.68 21.3203 117.039 20.1016C117.383 18.9141 117.648 17.7578 117.836 16.6328C118.039 15.4922 118.141 14.4844 118.141 13.6094C118.078 13.75 117.852 13.8672 117.461 13.9609C117.211 14.0391 116.93 14.0781 116.617 14.0781C116.07 14.0781 115.641 13.8125 115.328 13.2812C115.031 12.8281 114.883 12.2812 114.883 11.6406C114.883 10.8594 115.133 10.2344 115.633 9.76562C116.133 9.28125 116.875 9.03906 117.859 9.03906C118.922 9.03906 119.711 9.46875 120.227 10.3281C120.664 11.0469 120.883 12.0078 120.883 13.2109C120.883 14.5391 120.766 15.9766 120.531 17.5234C120.312 19.0703 119.977 20.5938 119.523 22.0938C118.43 25.6562 116.953 28.4609 115.094 30.5078C112.844 33.0234 110.211 34.2812 107.195 34.2812C105.617 34.2812 104.336 33.9453 103.352 33.2734C102.367 32.6016 101.734 31.5938 101.453 30.25C100.438 31.7969 99.25 32.8984 97.8906 33.5547C96.9219 34.0391 95.8359 34.2812 94.6328 34.2812ZM127.375 34.2812C125.547 34.2812 124.07 33.7109 122.945 32.5703C121.633 31.2266 120.977 29.2266 120.977 26.5703C120.977 25.4453 121.094 24.2578 121.328 23.0078C121.547 21.7578 121.875 20.5234 122.312 19.3047C123.312 16.5547 124.68 14.3359 126.414 12.6484C128.414 10.7266 130.719 9.76562 133.328 9.76562C134.625 9.76562 135.594 9.99219 136.234 10.4453C136.891 10.8828 137.219 11.4688 137.219 12.2031V12.5547L137.734 10H144.648L141.203 26.3125C141.062 26.7812 140.992 27.2969 140.992 27.8594C140.992 29.2344 141.648 29.9219 142.961 29.9219C143.836 29.9219 144.633 29.4766 145.352 28.5859C145.961 27.8359 146.461 26.7734 146.852 25.3984H148.867C148.008 27.8359 146.969 29.7656 145.75 31.1875C144.719 32.3594 143.555 33.2031 142.258 33.7188C141.305 34.0938 140.297 34.2812 139.234 34.2812C137.875 34.2812 136.789 33.9141 135.977 33.1797C135.18 32.4297 134.695 31.3281 134.523 29.875C133.617 31.1562 132.664 32.1562 131.664 32.875C130.383 33.8125 128.953 34.2812 127.375 34.2812ZM130.492 29.6406C130.852 29.6406 131.227 29.5469 131.617 29.3594C132.023 29.1719 132.414 28.9062 132.789 28.5625C133.633 27.75 134.195 26.6953 134.477 25.3984L136.773 14.5703C136.773 14.4141 136.734 14.2344 136.656 14.0312C136.594 13.8125 136.5 13.6094 136.375 13.4219C136 12.9688 135.477 12.7422 134.805 12.7422C134.164 12.7422 133.539 12.9531 132.93 13.375C132.336 13.7969 131.773 14.3828 131.242 15.1328C130.305 16.4922 129.531 18.2656 128.922 20.4531C128.641 21.4219 128.43 22.3828 128.289 23.3359C128.148 24.2734 128.078 25.125 128.078 25.8906C128.078 27.4844 128.375 28.5625 128.969 29.125C129.172 29.3438 129.398 29.4844 129.648 29.5469C129.898 29.6094 130.18 29.6406 130.492 29.6406ZM154.352 46C153.602 46 152.898 45.8984 152.242 45.6953C151.602 45.5078 151.047 45.2188 150.578 44.8281C150.078 44.4375 149.688 43.9453 149.406 43.3516C149.125 42.7734 148.984 42.1016 148.984 41.3359C148.984 39.5234 149.836 37.9688 151.539 36.6719C152.82 35.7188 154.578 34.8906 156.812 34.1875L157.398 31.6094C156.461 32.6406 155.445 33.3672 154.352 33.7891C153.508 34.1172 152.602 34.2812 151.633 34.2812C150.102 34.2812 148.891 33.8281 148 32.9219C147 31.9219 146.5 30.4609 146.5 28.5391C146.5 27.6328 146.625 26.5859 146.875 25.3984L150.133 10H157.047L153.602 26.3125C153.508 26.7031 153.461 27.1094 153.461 27.5312C153.461 28.1406 153.562 28.625 153.766 28.9844C154 29.4219 154.375 29.6406 154.891 29.6406C155.734 29.6406 156.492 29.2656 157.164 28.5156C157.742 27.875 158.234 26.9375 158.641 25.7031L161.992 10H168.906L164.148 32.2656C165.664 31.7656 166.875 31.0156 167.781 30.0156C168.766 28.9375 169.57 27.3984 170.195 25.3984H172.211C171.352 28.2422 170.07 30.4375 168.367 31.9844C167.117 33.1094 165.57 33.9062 163.727 34.375L163 37.8438C162.391 40.9062 161.172 43.125 159.344 44.5C158.016 45.5 156.352 46 154.352 46ZM153.25 42.25C153.734 42.25 154.25 41.8984 154.797 41.1953C155.328 40.5078 155.742 39.4375 156.039 37.9844L156.32 36.6016C154.867 37.1484 153.781 37.7031 153.062 38.2656C152.109 38.9844 151.633 39.7891 151.633 40.6797C151.633 41.1016 151.766 41.4531 152.031 41.7344C152.328 42.0781 152.734 42.25 153.25 42.25Z" fill="white"/>
</svg>
